<?xml version="1.0" encoding="UTF-8"?>
<svg width="253px" height="18px" viewBox="0 0 253 18" version="1.1" xmlns="http://www.w3.org/2000/svg" xmlns:xlink="http://www.w3.org/1999/xlink">
    <!-- Generator: Sketch 54 (76480) - https://sketchapp.com -->
    <title>编组 3</title>
    <desc>Created with Sketch.</desc>
    <g id="组件" stroke="none" stroke-width="1" fill="none" fill-rule="evenodd">
        <g id="head" transform="translate(-100.000000, -22.000000)">
            <g id="编组-3" transform="translate(100.764648, 22.000000)">
                <path d="M91.6591797,16.8876953 L91.6591797,14.7431641 L93.7861328,14.7431641 L93.7861328,8.4765625 L96.0712891,8.4765625 L96.0712891,14.7431641 L98.6992188,14.7431641 L98.6992188,6.15625 L101.010742,6.15625 L101.010742,9.35546875 L105.282227,9.35546875 L105.282227,11.4560547 L101.010742,11.4560547 L101.010742,14.7431641 L106.723633,14.7431641 L106.723633,16.8876953 L91.6591797,16.8876953 Z M92.2744141,8.84570312 C91.8935528,8.15429342 91.4570337,7.43945682 90.9648438,6.70117188 C92.8925878,5.74608897 94.4306583,4.79395006 95.5791016,3.84472656 C96.6748102,2.9423783 97.5800746,1.89941998 98.2949219,0.715820312 L100.993164,0.909179688 L100.65918,1.45410156 C101.43848,2.52051314 102.352534,3.42870719 103.401367,4.17871094 C104.444341,4.91699588 105.806632,5.63476214 107.488281,6.33203125 C107.089842,6.95312811 106.670901,7.67382402 106.231445,8.49414062 C104.549796,7.66796462 103.200689,6.86230861 102.184082,6.07714844 C101.167475,5.29198826 100.243168,4.342779 99.4111328,3.22949219 C98.5908162,4.27246615 97.6357476,5.22753473 96.5458984,6.09472656 C95.3915958,7.00879363 93.9677819,7.92577665 92.2744141,8.84570312 Z M109.254883,16.7822266 L109.254883,14.4794922 L113.860352,14.4794922 L113.860352,11.2275391 L111.856445,11.9482422 C111.11816,9.63377749 110.297856,7.16407562 109.395508,4.5390625 L111.390625,3.80078125 C112.22266,6.0566519 113.045894,8.41795642 113.860352,10.8847656 L113.860352,0.997070312 L116.136719,0.997070312 L116.136719,14.4794922 L118.290039,14.4794922 L118.290039,0.997070312 L120.557617,0.997070312 L120.557617,10.515625 C121.442387,8.3300672 122.271481,6.10938628 123.044922,3.85351562 L125.110352,4.62695312 C124.102534,7.55665527 123.19434,9.97948261 122.385742,11.8955078 L120.557617,11.1484375 L120.557617,14.4794922 L125.180664,14.4794922 L125.180664,16.7822266 L109.254883,16.7822266 Z M136.246094,17.6787109 C136.093749,17.4501942 135.847658,17.0986352 135.507812,16.6240234 C135.349609,16.3955067 135.229493,16.2255865 135.147461,16.1142578 L134.646484,16.9580078 L132.387695,15.7626953 C131.274408,16.4892614 129.750986,17.1162083 127.817383,17.6435547 C127.74707,17.4501943 127.580079,17.0605498 127.316406,16.4746094 C127.164062,16.1230451 127.052735,15.8681649 126.982422,15.7099609 C128.306647,15.4345689 129.431636,15.1123065 130.357422,14.7431641 L127.817383,13.5302734 C128.004884,13.2373032 128.306639,12.7392613 128.722656,12.0361328 L127.193359,12.0361328 L127.193359,10.234375 L129.750977,10.234375 C129.856446,10.0468741 129.999999,9.78027517 130.181641,9.43457031 C130.228516,9.34081984 130.263672,9.27343771 130.287109,9.23242188 L132.334961,9.30273438 L131.816406,10.234375 L135.375977,10.234375 L135.375977,12.1064453 C135.006834,13.0029342 134.538089,13.7705046 133.969727,14.4091797 L135.648438,15.1650391 C136.679693,14.3798789 137.491208,13.6181678 138.083008,12.8798828 C137.508786,11.7548772 137.063478,10.3691489 136.74707,8.72265625 C136.676757,8.83984434 136.572755,9.01855349 136.435059,9.25878906 C136.297363,9.49902464 136.19336,9.67773379 136.123047,9.79492188 L135.499023,8.6875 L134.901367,9.56640625 C134.426755,9.19726378 133.697271,8.6699253 132.712891,7.984375 L132.712891,8.95117188 L130.805664,8.95117188 L130.805664,7.65039062 C130.102536,8.39453497 129.153326,9.07421567 127.958008,9.68945312 C127.83496,9.41992053 127.618166,8.99512009 127.307617,8.41503906 C127.208007,8.23339753 127.134766,8.09570359 127.087891,8.00195312 C127.767582,7.71484231 128.341795,7.42773581 128.810547,7.140625 C129.296877,6.84179538 129.742185,6.49609571 130.146484,6.10351562 L127.333984,6.10351562 L127.333984,4.34570312 L130.805664,4.34570312 L130.805664,0.856445312 L132.712891,0.856445312 L132.712891,4.34570312 L134.207031,4.34570312 L132.958984,3.22949219 C133.726566,2.45019142 134.341795,1.78808866 134.804688,1.24316406 L136.158203,2.28027344 C136.128906,2.30957046 136.084961,2.35937465 136.026367,2.4296875 C135.217769,3.33789517 134.623049,3.97656065 134.242188,4.34570312 L135.806641,4.34570312 L135.806641,6.10351562 L132.712891,6.10351562 L132.712891,7.5625 L133.495117,6.578125 L135.165039,7.5625 C135.774417,6.48436961 136.281248,5.39746642 136.685547,4.30175781 C137.083986,3.22948683 137.423827,2.03418628 137.705078,0.715820312 L139.735352,1.03222656 C139.541991,1.79980853 139.304689,2.61718316 139.023438,3.484375 L143.3125,3.484375 L143.3125,5.64648438 L142.301758,5.64648438 C142.149413,7.25196115 141.938478,8.61132256 141.668945,9.72460938 C141.381835,10.8964902 140.998049,11.9365189 140.517578,12.8447266 C141.220707,13.7119184 142.193353,14.538082 143.435547,15.3232422 C143.382812,15.4111333 143.303711,15.5458975 143.198242,15.7275391 C142.764646,16.465824 142.430665,17.0634743 142.196289,17.5205078 C141.012689,16.6123001 140.040043,15.6865282 139.27832,14.7431641 C138.551754,15.6455123 137.541022,16.6240182 136.246094,17.6787109 Z M132.229492,13.6357422 C132.616213,13.2900373 132.988279,12.7568395 133.345703,12.0361328 L130.735352,12.0361328 L130.251953,12.7919922 L132.229492,13.6357422 Z M139.295898,10.8847656 C139.594728,10.2109341 139.829101,9.44043402 139.999023,8.57324219 C140.163087,7.7705038 140.289062,6.79492762 140.376953,5.64648438 L138.206055,5.64648438 C138.194336,5.66992199 138.182617,5.69921857 138.170898,5.734375 C138.147461,5.78710964 138.129883,5.82226554 138.118164,5.83984375 C138.364259,7.97852632 138.756833,9.66015013 139.295898,10.8847656 Z M129.100586,4.328125 C128.749022,3.87109146 128.183598,3.19434042 127.404297,2.29785156 L128.705078,1.27832031 C129.519535,2.0810587 130.123045,2.71386487 130.515625,3.17675781 L129.100586,4.328125 Z M149.464844,17.4326172 C149.283202,16.401362 149.13379,15.6396509 149.016602,15.1474609 C149.743168,15.1943362 150.49609,15.2177734 151.275391,15.2177734 C151.744143,15.2177734 152.063476,15.135743 152.233398,14.9716797 C152.391602,14.8076164 152.470703,14.5029319 152.470703,14.0576172 L152.470703,12.7744141 L145.105469,12.7744141 L145.105469,10.6210938 L152.470703,10.6210938 L152.470703,9.83007812 L155.054688,8.31835938 L147.882812,8.31835938 L147.882812,6.77148438 L145.676758,6.77148438 L145.676758,2.66699219 L152.12793,2.66699219 L151.547852,0.944335938 L154.246094,0.698242188 C154.28125,0.833008486 154.345703,1.05273285 154.439453,1.35742188 C154.609376,1.9316435 154.735351,2.36816257 154.817383,2.66699219 L160.793945,2.66699219 L160.793945,6.77148438 L158.570312,6.77148438 L158.570312,8.35351562 L154.834961,10.515625 L154.834961,10.6210938 L161.382812,10.6210938 L161.382812,12.7744141 L154.834961,12.7744141 L154.834961,14.8310547 C154.834961,15.7275435 154.641603,16.3720683 154.254883,16.7646484 C153.879881,17.1513691 153.255864,17.3623045 152.382812,17.3974609 C152.259765,17.3974609 152.081056,17.4003906 151.84668,17.40625 C150.66308,17.4238282 149.869143,17.4326172 149.464844,17.4326172 Z M147.970703,6.26171875 L158.5,6.26171875 L158.5,4.78515625 L147.970703,4.78515625 L147.970703,6.26171875 Z M165.276367,17.5205078 L165.276367,9.19726562 C164.825193,9.87109712 164.271488,10.6357379 163.615234,11.4912109 C163.533203,11.086912 163.401368,10.4570355 163.219727,9.6015625 C163.108398,9.06835671 163.023438,8.66992319 162.964844,8.40625 C163.826176,7.29296318 164.56738,6.13281854 165.188477,4.92578125 C165.803714,3.73046277 166.377927,2.34473444 166.911133,0.768554688 L169.222656,1.61230469 C168.660153,3.07129636 168.074222,4.38085357 167.464844,5.54101562 L167.464844,17.5205078 L165.276367,17.5205078 Z M173.854492,17.1337891 C173.157223,17.1337891 172.618166,17.0458993 172.237305,16.8701172 C171.833006,16.6884757 171.54004,16.3837912 171.358398,15.9560547 C171.182616,15.5341776 171.094727,14.9365273 171.094727,14.1630859 L171.094727,11.6845703 C170.426754,12.1064474 169.679692,12.5341775 168.853516,12.9677734 C168.601561,12.4931617 168.17969,11.7812547 167.587891,10.8320312 C168.941413,10.1054651 170.110347,9.42578441 171.094727,8.79296875 L171.094727,0.979492188 L173.494141,0.979492188 L173.494141,7.03515625 C174.847663,5.93944765 176.166009,4.60645316 177.449219,3.03613281 L179.224609,4.76757812 C177.589836,6.68360333 175.679698,8.44725757 173.494141,10.0585938 L173.494141,13.7939453 C173.494141,14.1982442 173.570312,14.4765617 173.722656,14.6289062 C173.869141,14.7753914 174.132811,14.8486328 174.513672,14.8486328 L175.454102,14.8486328 C175.887697,14.8486328 176.201171,14.7680672 176.394531,14.6069336 C176.587892,14.4458 176.713867,14.1572286 176.772461,13.7412109 C176.860352,13.1435517 176.96582,12.232428 177.088867,11.0078125 C177.680667,11.2480481 178.451167,11.5263656 179.400391,11.8427734 C179.277343,12.9560603 179.107423,14.0341745 178.890625,15.0771484 C178.749999,15.8212928 178.462893,16.3427719 178.029297,16.6416016 C177.566404,16.9697282 176.819341,17.1337891 175.788086,17.1337891 L173.854492,17.1337891 Z M181.782227,17.4326172 L181.782227,7.31640625 L189.05957,7.31640625 L189.05957,15.2705078 C189.05957,15.9384799 188.923341,16.4335921 188.650879,16.7558594 C188.378417,17.0781266 187.937503,17.2626951 187.328125,17.3095703 C186.607418,17.3564455 185.927738,17.3798828 185.289062,17.3798828 C185.171874,16.7001919 185.051758,16.0849637 184.928711,15.5341797 C185.227541,15.5576173 185.702145,15.5693359 186.352539,15.5693359 C186.616212,15.5693359 186.80664,15.5136724 186.923828,15.4023438 C187.041016,15.2910151 187.099609,15.1181652 187.099609,14.8837891 L187.099609,14.3037109 L183.733398,14.3037109 L183.733398,17.4326172 L181.782227,17.4326172 Z M192.43457,17.2568359 C191.678707,17.2568359 191.119142,17.0693378 190.755859,16.6943359 C190.380857,16.3017558 190.193359,15.6865276 190.193359,14.8486328 L190.193359,9.3203125 L192.311523,9.3203125 L192.311523,11.2451172 C193.62403,10.6826144 194.851557,10.0761751 195.994141,9.42578125 L197.154297,11.1308594 C195.343741,12.0156294 193.729499,12.7509736 192.311523,13.3369141 L192.311523,14.4267578 C192.311523,14.7373062 192.381835,14.9643548 192.522461,15.1079102 C192.663087,15.2514656 192.88867,15.3232422 193.199219,15.3232422 L194.253906,15.3232422 C194.80469,15.3232422 195.124023,15.0654323 195.211914,14.5498047 C195.288086,13.9814425 195.352539,13.3720736 195.405273,12.7216797 C195.522462,12.7626955 195.689452,12.8242183 195.90625,12.90625 C196.521487,13.1171886 196.984373,13.2666011 197.294922,13.3544922 C197.201171,14.2392622 197.083985,15.0009734 196.943359,15.6396484 C196.73828,16.7177788 195.991217,17.2568359 194.702148,17.2568359 L192.43457,17.2568359 Z M183.733398,12.7216797 L187.099609,12.7216797 L187.099609,11.6494141 L183.733398,11.6494141 L183.733398,12.7216797 Z M183.733398,10.1113281 L187.099609,10.1113281 L187.099609,9.02148438 L183.733398,9.02148438 L183.733398,10.1113281 Z M192.416992,8.6875 C191.661129,8.6875 191.101564,8.50000187 190.738281,8.125 C190.363279,7.73241991 190.175781,7.11719169 190.175781,6.27929688 L190.175781,5.92773438 L188.611328,6.98242188 L188.057617,6.15625 C186.622063,6.19726583 185.01661,6.27929626 183.241211,6.40234375 C182.696286,6.43750018 182.163089,6.50781197 181.641602,6.61328125 L180.947266,4.76757812 C181.39258,4.47460791 181.776366,4.12890824 182.098633,3.73046875 C182.901371,2.85741751 183.666012,1.81152953 184.392578,0.592773438 L186.633789,1.26074219 C185.573237,2.52637352 184.60645,3.63085466 183.733398,4.57421875 L186.871094,4.46875 L185.869141,3.03613281 L187.363281,2.10449219 C188.464849,3.46973339 189.40234,4.67968223 190.175781,5.734375 L190.175781,0.891601562 L192.293945,0.891601562 L192.293945,3.14160156 C193.471686,2.63183339 194.681634,2.0283238 195.923828,1.33105469 L197.101562,2.93066406 C195.367179,3.7978559 193.764656,4.51562216 192.293945,5.08398438 L192.293945,5.875 C192.293945,6.19726724 192.359863,6.42431575 192.491699,6.55615234 C192.623536,6.68798894 192.853514,6.75390625 193.181641,6.75390625 L194.21875,6.75390625 C194.763675,6.75390625 195.077148,6.50195564 195.15918,5.99804688 C195.247071,5.58202917 195.329101,5.02539411 195.405273,4.328125 C195.920901,4.51562594 196.544918,4.72070201 197.277344,4.94335938 C197.177734,5.76367598 197.054688,6.46093463 196.908203,7.03515625 C196.662108,8.13672426 195.917975,8.6875 194.675781,8.6875 L192.416992,8.6875 Z M200.722656,17.6259766 L199.070312,15.5341797 C200.429694,14.6318314 201.452145,13.8115271 202.137695,13.0732422 C202.87598,12.2705038 203.417967,11.3623098 203.763672,10.3486328 C204.097658,9.39354991 204.329101,8.11914859 204.458008,6.52539063 L199.624023,6.52539063 L199.624023,4.16992188 L204.598633,4.16992188 C204.639649,3.44921515 204.680664,2.4150458 204.72168,1.06738281 C204.727539,0.932616514 204.730469,0.833008135 204.730469,0.768554688 L207.25293,0.768554688 C207.217773,1.90527912 207.15918,3.03905685 207.077148,4.16992188 L214.530273,4.16992188 C214.489258,5.31836512 214.421875,6.86815431 214.328125,8.81933594 C214.222656,11.0752066 214.140625,12.6748 214.082031,13.6181641 C214,14.8193419 213.707034,15.6835911 213.203125,16.2109375 C212.681638,16.7558621 211.837896,17.0458983 210.671875,17.0810547 C209.394525,17.1279299 208.155279,17.1513672 206.954102,17.1513672 C206.854492,16.4248011 206.69336,15.5752002 206.470703,14.6025391 C207.513677,14.6611331 208.60351,14.6904297 209.740234,14.6904297 C210.437503,14.6904297 210.922362,14.5395523 211.194824,14.237793 C211.467287,13.9360336 211.629883,13.3662151 211.682617,12.5283203 C211.805665,10.4189348 211.887695,8.41797821 211.928711,6.52539063 L206.918945,6.52539063 C206.77246,8.49415047 206.505861,10.0732362 206.119141,11.2626953 C205.714842,12.5224672 205.084965,13.6445263 204.229492,14.6289062 C203.438473,15.5429733 202.269539,16.5419868 200.722656,17.6259766 Z M224.040039,17.6083984 L224.040039,12.1591797 L217.175781,12.1591797 L217.175781,9.93554688 L224.040039,9.93554688 L224.040039,3.74804688 L217.958008,3.74804688 L217.958008,1.55957031 L232.547852,1.55957031 L232.547852,3.74804688 L226.413086,3.74804688 L226.413086,9.93554688 L233.294922,9.93554688 L233.294922,12.1591797 L226.413086,12.1591797 L226.413086,17.6083984 L224.040039,17.6083984 Z M229.128906,9.37304688 L227.494141,7.89648438 C228.572271,6.77733815 229.556636,5.63477146 230.447266,4.46875 L232.196289,5.78710938 C231.047846,7.21094462 230.025395,8.40624517 229.128906,9.37304688 Z M221.12207,9.35546875 C220.184566,8.13085325 219.217778,6.95898997 218.22168,5.83984375 L219.865234,4.46875 C220.978521,5.66992788 221.980464,6.80663526 222.871094,7.87890625 L221.12207,9.35546875 Z M236.819336,17.6083984 L236.819336,9.47851562 L249.581055,9.47851562 L249.581055,17.6083984 L247.287109,17.6083984 L247.287109,16.5537109 L239.095703,16.5537109 L239.095703,17.6083984 L236.819336,17.6083984 Z M239.095703,14.4619141 L247.287109,14.4619141 L247.287109,11.5615234 L239.095703,11.5615234 L239.095703,14.4619141 Z M249.545898,8.96875 L248.438477,7.72070312 C245.028303,7.79687538 241.902358,7.89648376 239.060547,8.01953125 C238.023432,8.06640648 237.141605,8.17187418 236.415039,8.3359375 L235.342773,6.12109375 C236.034183,5.80468592 236.728512,5.36523719 237.425781,4.80273438 C238.064456,4.26952858 238.779293,3.61035549 239.570312,2.82519531 C240.396489,1.99901931 241.07031,1.27246407 241.591797,0.645507812 L244.09668,1.71777344 C242.479484,3.23535915 240.879891,4.6269468 239.297852,5.89257812 L246.592773,5.69921875 L244.896484,3.87109375 L246.575195,2.64941406 C248.508799,4.56543927 250.120111,6.20897752 251.40918,7.58007812 L249.545898,8.96875 Z" id="企业数字化能力平台" fill="#314659" fill-rule="nonzero"></path>
                <g id="编组" transform="translate(39.235352, 0.000000)" fill="#16BDFC">
                    <polygon id="Fill-1" points="1.2474 5.93713846 -4.61538462e-05 17.8047692 3.50386154 17.8047692 4.75315385 5.91886154"></polygon>
                    <g transform="translate(1.476923, 0.037385)">
                        <path d="M14.6904462,4.08858462 C16.2774,4.08858462 17.8738615,4.75310769 18.9608769,5.86624615 L19.1346923,6.04430769 L21.4631538,3.40015385 L21.3036462,3.24701538 C19.7355231,1.74267692 17.3727231,0.844523077 14.9828769,0.844523077 C12.5063538,0.844523077 10.1286,1.70796923 8.28770769,3.27581538 C6.44146154,4.84827692 5.28973846,6.99793846 5.04475385,9.32861538 C4.8042,11.6171077 5.45829231,13.7509846 6.88666154,15.3372 C8.37909231,16.9947692 10.5682615,17.9076923 13.0508769,17.9076923 C15.3058615,17.9076923 17.9877692,17.0562462 19.8832154,15.7385538 L19.9698923,15.6782769 L20.6540769,9.16873846 L13.9391538,9.16873846 L17.1200769,12.3486462 L16.9785692,13.6950462 C15.8107846,14.2967077 14.5696154,14.6402769 13.5562615,14.6402769 C12.0671538,14.6402769 10.7476154,14.0856 9.84078462,13.0784308 C8.96155385,12.1019077 8.55881538,10.7872615 8.70715385,9.37689231 C9.01887692,6.41150769 11.6469692,4.08858462 14.6904462,4.08858462" id="Fill-2"></path>
                        <polygon id="Fill-4" points="24.6789692 0.93804 22.9101692 17.7673015 26.5074923 17.7673015 28.2763846 0.93804"></polygon>
                        <polygon id="Fill-6" points="46.1095846 0.93804 41.7985385 0.93804 37.6076769 6.14345538 34.5111231 0.93804 30.3058615 0.93804 35.1092769 9.12148615 28.1314615 17.7673015 32.3952462 17.7673015 37.0117385 12.0898246 40.4802 17.7673015 44.7795231 17.7673015 39.5889692 9.02207077"></polygon>
                        <path d="M1.93647692,0.0549415385 C0.888969231,0.0549415385 0.0368769231,0.907126154 0.0368769231,1.95463385 C0.0368769231,3.00204923 0.888969231,3.85423385 1.93647692,3.85423385 C2.98398462,3.85423385 3.83616923,3.00204923 3.83616923,1.95463385 C3.83616923,0.907126154 2.98398462,0.0549415385 1.93647692,0.0549415385" id="Fill-8"></path>
                    </g>
                </g>
                <path d="M5.47558594,17.6435547 L4.30664062,15.8154297 C4.5410168,15.5986317 4.70800731,15.3701184 4.80761719,15.1298828 C4.90722706,14.901366 4.95703125,14.6259782 4.95703125,14.3037109 L4.95703125,2.40332031 L8.87695312,2.40332031 L8.46386719,0.874023438 L10.9423828,0.645507812 L11.3642578,2.40332031 L15.1962891,2.40332031 L15.1962891,10.7089844 L14.8007812,10.7089844 L16.0839844,12.1064453 C15.0175728,12.8212926 14.0800822,13.4189429 13.2714844,13.8994141 C13.9980505,14.4033228 15.0410088,14.8486309 16.4003906,15.2353516 C16.3535154,15.3349614 16.2832036,15.4814443 16.1894531,15.6748047 C15.8203107,16.4541055 15.5654304,17.0224592 15.4248047,17.3798828 C14.153314,16.9111305 13.098637,16.4013699 12.2607422,15.8505859 C11.3876909,15.2822237 10.6640654,14.6084023 10.0898438,13.8291016 C10.0722655,14.6494182 10.0722655,15.3818327 10.0898438,16.0263672 C9.16991728,16.2490246 8.09473271,16.5888649 6.86425781,17.0458984 C6.34863023,17.2041024 5.88574424,17.4033191 5.47558594,17.6435547 Z M2.38183594,17.4853516 L0.263671875,16.7822266 C0.931643965,14.643544 1.54394253,12.5429791 2.10058594,10.4804688 C2.21777402,10.5214846 2.38476454,10.5859371 2.6015625,10.6738281 C3.26953459,10.9375013 3.79980272,11.1337884 4.19238281,11.2626953 C3.61230179,13.1084077 3.0087922,15.1826057 2.38183594,17.4853516 Z M7.12792969,14.6376953 C7.39746229,14.5556637 7.86327794,14.4062511 8.52539062,14.1894531 C9.19336271,13.9667958 9.68847495,13.8056646 10.0107422,13.7060547 C9.40722354,12.8505817 8.92090028,11.8515682 8.55175781,10.7089844 L7.12792969,10.7089844 L7.12792969,14.6376953 Z M11.8652344,12.6513672 C12.960943,11.895504 13.8515591,11.2480496 14.5371094,10.7089844 L10.7402344,10.7089844 C11.0625016,11.4882851 11.4374979,12.1357396 11.8652344,12.6513672 Z M2.61035156,9.47851562 C1.60839343,8.55272975 0.738284941,7.77344066 0,7.140625 L1.38867188,5.57617188 C2.30859835,6.26172218 3.20800342,6.99413673 4.08691406,7.7734375 L2.61035156,9.47851562 Z M7.12792969,8.828125 L13.0605469,8.828125 L13.0605469,7.43945312 L7.12792969,7.43945312 L7.12792969,8.828125 Z M7.12792969,5.68164062 L13.0605469,5.68164062 L13.0605469,4.328125 L7.12792969,4.328125 L7.12792969,5.68164062 Z M3.05859375,4.8203125 C2.66015426,4.45702943 2.06543364,3.9267613 1.27441406,3.22949219 C0.899412188,2.90136555 0.621094658,2.65527426 0.439453125,2.49121094 L1.79296875,0.926757812 C2.34961216,1.33105671 3.2578062,2.04589331 4.51757812,3.07128906 L3.05859375,4.8203125 Z M28.6523438,17.6611328 C28.2246072,17.3798814 27.6503942,17.0517597 26.9296875,16.6767578 C27.3339864,15.9853481 27.6416005,15.3994165 27.8525391,14.9189453 L25.6992188,14.9189453 L25.6992188,17.5205078 L23.8359375,17.5205078 L23.8359375,14.9189453 L21.2695312,14.9189453 L21.2695312,13.1435547 L23.8359375,13.1435547 L23.8359375,12.0361328 L21.8056641,12.0361328 L21.8056641,4.97851562 L23.8359375,4.97851562 L23.8359375,3.92382812 L21.5419922,3.92382812 L21.5419922,2.17480469 L23.8359375,2.17480469 L23.8359375,0.750976562 L25.6992188,0.750976562 L25.6992188,2.17480469 L28.0283203,2.17480469 L28.0283203,3.92382812 L25.6992188,3.92382812 L25.6992188,4.97851562 L27.7470703,4.97851562 L27.7470703,12.0361328 L25.6992188,12.0361328 L25.6992188,13.1435547 L28.2128906,13.1435547 L28.2128906,13.8642578 C28.4589856,12.9443313 28.5820312,11.6347741 28.5820312,9.93554688 L28.5820312,1.45410156 L33.7587891,1.45410156 L33.7587891,15.3232422 C33.7587891,15.9619173 33.6503917,16.4365219 33.4335938,16.7470703 C33.2109364,17.0634781 32.8535181,17.245117 32.3613281,17.2919922 C31.8691382,17.3388674 31.2392617,17.3623047 30.4716797,17.3623047 C30.3720698,16.6533168 30.2519538,15.9853547 30.1113281,15.3583984 C30.5742211,15.3818361 30.9492173,15.3935547 31.2363281,15.3935547 C31.5175795,15.3935547 31.7094721,15.3378912 31.8120117,15.2265625 C31.9145513,15.1152338 31.9658203,14.9130874 31.9658203,14.6201172 L31.9658203,12.0537109 L30.3310547,12.0537109 C30.2607418,13.2607482 30.0908217,14.2890583 29.8212891,15.1386719 C29.5869129,15.8886756 29.1972683,16.7294875 28.6523438,17.6611328 Z M20.0214844,17.4501953 L18.0878906,16.8876953 C18.5273459,14.9951077 18.972654,12.8125124 19.4238281,10.3398438 L21.3222656,10.9902344 C20.7890598,13.4277466 20.3554704,15.5810453 20.0214844,17.4501953 Z M23.5458984,10.4101562 L26.0244141,10.4101562 L26.0244141,9.23242188 L23.5458984,9.23242188 L23.5458984,10.4101562 Z M30.3837891,10.1289062 L31.9658203,10.1289062 L31.9658203,7.7734375 L30.3837891,7.7734375 L30.3837891,10.1289062 Z M19.3271484,9.40820312 C19.0869129,8.71093401 18.6679717,7.65625706 18.0703125,6.24414062 L19.8808594,5.61132812 C19.9863287,5.8457043 20.1386709,6.18847431 20.3378906,6.63964844 C20.7656271,7.58301253 21.0761709,8.27734152 21.2695312,8.72265625 L19.3271484,9.40820312 Z M23.5458984,7.73828125 L26.0244141,7.73828125 L26.0244141,6.61328125 L23.5458984,6.61328125 L23.5458984,7.73828125 Z M30.3837891,5.82226562 L31.9658203,5.82226562 L31.9658203,3.50195312 L30.3837891,3.50195312 L30.3837891,5.82226562 Z M19.546875,4.76757812 C19.1367167,3.66015071 18.7089866,2.57910684 18.2636719,1.52441406 L20.1181641,0.926757812 C20.7158233,2.21582676 21.1699203,3.27343337 21.4804688,4.09960938 L19.546875,4.76757812 Z" id="浪潮" fill="#314659" fill-rule="nonzero"></path>
            </g>
        </g>
    </g>
</svg>